<mxfile host="app.diagrams.net" agent="Mozilla/5.0 (Windows NT 10.0; Win64; x64) AppleWebKit/537.36 (KHTML, like Gecko) Chrome/128.0.0.0 Safari/537.36" version="24.7.14">
  <diagram name="Página-1" id="bamVa_0NoXlc-tf__FN4">
    <mxGraphModel grid="1" page="1" gridSize="10" guides="1" tooltips="1" connect="1" arrows="1" fold="1" pageScale="1" pageWidth="827" pageHeight="1169" math="0" shadow="0">
      <root>
        <mxCell id="0" />
        <mxCell id="1" parent="0" />
        <mxCell id="87OqCBBtjAjnsFlcotj2-33" value="" style="shape=table;startSize=0;container=1;collapsible=0;childLayout=tableLayout;" vertex="1" parent="1">
          <mxGeometry x="40" y="50" width="690" height="410" as="geometry" />
        </mxCell>
        <mxCell id="87OqCBBtjAjnsFlcotj2-34" value="" style="shape=tableRow;horizontal=0;startSize=0;swimlaneHead=0;swimlaneBody=0;strokeColor=inherit;top=0;left=0;bottom=0;right=0;collapsible=0;dropTarget=0;fillColor=none;points=[[0,0.5],[1,0.5]];portConstraint=eastwest;" vertex="1" parent="87OqCBBtjAjnsFlcotj2-33">
          <mxGeometry width="690" height="40" as="geometry" />
        </mxCell>
        <mxCell id="87OqCBBtjAjnsFlcotj2-35" value="Usuario" style="shape=partialRectangle;html=1;whiteSpace=wrap;connectable=0;strokeColor=inherit;overflow=hidden;fillColor=none;top=0;left=0;bottom=0;right=0;pointerEvents=1;" vertex="1" parent="87OqCBBtjAjnsFlcotj2-34">
          <mxGeometry width="175" height="40" as="geometry">
            <mxRectangle width="175" height="40" as="alternateBounds" />
          </mxGeometry>
        </mxCell>
        <mxCell id="87OqCBBtjAjnsFlcotj2-36" value="Interfaz" style="shape=partialRectangle;html=1;whiteSpace=wrap;connectable=0;strokeColor=inherit;overflow=hidden;fillColor=none;top=0;left=0;bottom=0;right=0;pointerEvents=1;" vertex="1" parent="87OqCBBtjAjnsFlcotj2-34">
          <mxGeometry x="175" width="175" height="40" as="geometry">
            <mxRectangle width="175" height="40" as="alternateBounds" />
          </mxGeometry>
        </mxCell>
        <mxCell id="87OqCBBtjAjnsFlcotj2-37" value="Capa de Negocios" style="shape=partialRectangle;html=1;whiteSpace=wrap;connectable=0;strokeColor=inherit;overflow=hidden;fillColor=none;top=0;left=0;bottom=0;right=0;pointerEvents=1;" vertex="1" parent="87OqCBBtjAjnsFlcotj2-34">
          <mxGeometry x="350" width="168" height="40" as="geometry">
            <mxRectangle width="168" height="40" as="alternateBounds" />
          </mxGeometry>
        </mxCell>
        <mxCell id="87OqCBBtjAjnsFlcotj2-38" value="Base de datos" style="shape=partialRectangle;html=1;whiteSpace=wrap;connectable=0;strokeColor=inherit;overflow=hidden;fillColor=none;top=0;left=0;bottom=0;right=0;pointerEvents=1;" vertex="1" parent="87OqCBBtjAjnsFlcotj2-34">
          <mxGeometry x="518" width="172" height="40" as="geometry">
            <mxRectangle width="172" height="40" as="alternateBounds" />
          </mxGeometry>
        </mxCell>
        <mxCell id="87OqCBBtjAjnsFlcotj2-39" value="" style="shape=tableRow;horizontal=0;startSize=0;swimlaneHead=0;swimlaneBody=0;strokeColor=inherit;top=0;left=0;bottom=0;right=0;collapsible=0;dropTarget=0;fillColor=none;points=[[0,0.5],[1,0.5]];portConstraint=eastwest;" vertex="1" parent="87OqCBBtjAjnsFlcotj2-33">
          <mxGeometry y="40" width="690" height="370" as="geometry" />
        </mxCell>
        <mxCell id="87OqCBBtjAjnsFlcotj2-40" value="" style="shape=partialRectangle;html=1;whiteSpace=wrap;connectable=0;strokeColor=inherit;overflow=hidden;fillColor=none;top=0;left=0;bottom=0;right=0;pointerEvents=1;" vertex="1" parent="87OqCBBtjAjnsFlcotj2-39">
          <mxGeometry width="175" height="370" as="geometry">
            <mxRectangle width="175" height="370" as="alternateBounds" />
          </mxGeometry>
        </mxCell>
        <mxCell id="87OqCBBtjAjnsFlcotj2-41" value="" style="shape=partialRectangle;html=1;whiteSpace=wrap;connectable=0;strokeColor=inherit;overflow=hidden;fillColor=none;top=0;left=0;bottom=0;right=0;pointerEvents=1;" vertex="1" parent="87OqCBBtjAjnsFlcotj2-39">
          <mxGeometry x="175" width="175" height="370" as="geometry">
            <mxRectangle width="175" height="370" as="alternateBounds" />
          </mxGeometry>
        </mxCell>
        <mxCell id="87OqCBBtjAjnsFlcotj2-42" value="" style="shape=partialRectangle;html=1;whiteSpace=wrap;connectable=0;strokeColor=inherit;overflow=hidden;fillColor=none;top=0;left=0;bottom=0;right=0;pointerEvents=1;" vertex="1" parent="87OqCBBtjAjnsFlcotj2-39">
          <mxGeometry x="350" width="168" height="370" as="geometry">
            <mxRectangle width="168" height="370" as="alternateBounds" />
          </mxGeometry>
        </mxCell>
        <mxCell id="87OqCBBtjAjnsFlcotj2-43" value="" style="shape=partialRectangle;html=1;whiteSpace=wrap;connectable=0;strokeColor=inherit;overflow=hidden;fillColor=none;top=0;left=0;bottom=0;right=0;pointerEvents=1;" vertex="1" parent="87OqCBBtjAjnsFlcotj2-39">
          <mxGeometry x="518" width="172" height="370" as="geometry">
            <mxRectangle width="172" height="370" as="alternateBounds" />
          </mxGeometry>
        </mxCell>
        <mxCell id="87OqCBBtjAjnsFlcotj2-67" value="Recopilar información" style="rounded=1;whiteSpace=wrap;html=1;" vertex="1" parent="87OqCBBtjAjnsFlcotj2-39">
          <mxGeometry x="690" height="370" as="geometry">
            <mxRectangle width="NaN" height="370" as="alternateBounds" />
          </mxGeometry>
        </mxCell>
        <mxCell id="87OqCBBtjAjnsFlcotj2-71" value="Mostrar información" style="rounded=1;whiteSpace=wrap;html=1;" vertex="1" parent="87OqCBBtjAjnsFlcotj2-39">
          <mxGeometry height="370" as="geometry">
            <mxRectangle width="NaN" height="370" as="alternateBounds" />
          </mxGeometry>
        </mxCell>
        <mxCell id="87OqCBBtjAjnsFlcotj2-75" value="Filtrar Información" style="rounded=1;whiteSpace=wrap;html=1;" vertex="1" parent="87OqCBBtjAjnsFlcotj2-39">
          <mxGeometry height="370" as="geometry">
            <mxRectangle width="NaN" height="370" as="alternateBounds" />
          </mxGeometry>
        </mxCell>
        <mxCell id="87OqCBBtjAjnsFlcotj2-80" value="" style="rhombus;whiteSpace=wrap;html=1;rounded=1;" vertex="1" parent="87OqCBBtjAjnsFlcotj2-39">
          <mxGeometry height="370" as="geometry">
            <mxRectangle width="NaN" height="370" as="alternateBounds" />
          </mxGeometry>
        </mxCell>
        <mxCell id="87OqCBBtjAjnsFlcotj2-46" style="edgeStyle=orthogonalEdgeStyle;rounded=0;orthogonalLoop=1;jettySize=auto;html=1;exitX=0.5;exitY=1;exitDx=0;exitDy=0;exitPerimeter=0;" edge="1" parent="1" target="87OqCBBtjAjnsFlcotj2-45">
          <mxGeometry relative="1" as="geometry">
            <mxPoint x="125" y="150" as="sourcePoint" />
          </mxGeometry>
        </mxCell>
        <mxCell id="87OqCBBtjAjnsFlcotj2-48" style="edgeStyle=orthogonalEdgeStyle;rounded=0;orthogonalLoop=1;jettySize=auto;html=1;exitX=1;exitY=0.5;exitDx=0;exitDy=0;" edge="1" parent="1" source="87OqCBBtjAjnsFlcotj2-45" target="87OqCBBtjAjnsFlcotj2-47">
          <mxGeometry relative="1" as="geometry" />
        </mxCell>
        <mxCell id="87OqCBBtjAjnsFlcotj2-45" value="Iniciar sesión&amp;nbsp;" style="rounded=1;whiteSpace=wrap;html=1;" vertex="1" parent="1">
          <mxGeometry x="65" y="160" width="120" height="40" as="geometry" />
        </mxCell>
        <mxCell id="87OqCBBtjAjnsFlcotj2-50" style="edgeStyle=orthogonalEdgeStyle;rounded=0;orthogonalLoop=1;jettySize=auto;html=1;exitX=0.5;exitY=1;exitDx=0;exitDy=0;entryX=0.5;entryY=0;entryDx=0;entryDy=0;" edge="1" parent="1" source="87OqCBBtjAjnsFlcotj2-47" target="87OqCBBtjAjnsFlcotj2-49">
          <mxGeometry relative="1" as="geometry">
            <Array as="points">
              <mxPoint x="300" y="210" />
              <mxPoint x="125" y="210" />
            </Array>
          </mxGeometry>
        </mxCell>
        <mxCell id="87OqCBBtjAjnsFlcotj2-47" value="Desplegar &quot;menú inicio&quot;" style="rounded=1;whiteSpace=wrap;html=1;" vertex="1" parent="1">
          <mxGeometry x="240" y="160" width="120" height="40" as="geometry" />
        </mxCell>
        <mxCell id="87OqCBBtjAjnsFlcotj2-130" style="edgeStyle=orthogonalEdgeStyle;rounded=0;orthogonalLoop=1;jettySize=auto;html=1;exitX=1;exitY=0.5;exitDx=0;exitDy=0;entryX=0;entryY=0.5;entryDx=0;entryDy=0;" edge="1" parent="1" source="87OqCBBtjAjnsFlcotj2-49" target="87OqCBBtjAjnsFlcotj2-51">
          <mxGeometry relative="1" as="geometry" />
        </mxCell>
        <mxCell id="87OqCBBtjAjnsFlcotj2-49" value="Ingresar a versiones" style="rounded=1;whiteSpace=wrap;html=1;" vertex="1" parent="1">
          <mxGeometry x="65" y="230" width="120" height="50" as="geometry" />
        </mxCell>
        <mxCell id="87OqCBBtjAjnsFlcotj2-131" style="edgeStyle=orthogonalEdgeStyle;rounded=0;orthogonalLoop=1;jettySize=auto;html=1;exitX=0.5;exitY=1;exitDx=0;exitDy=0;entryX=0.5;entryY=0;entryDx=0;entryDy=0;" edge="1" parent="1" source="87OqCBBtjAjnsFlcotj2-51" target="87OqCBBtjAjnsFlcotj2-53">
          <mxGeometry relative="1" as="geometry" />
        </mxCell>
        <mxCell id="87OqCBBtjAjnsFlcotj2-51" value="Llamar los últimos datos actualizados" style="rounded=1;whiteSpace=wrap;html=1;" vertex="1" parent="1">
          <mxGeometry x="410" y="230" width="120" height="50" as="geometry" />
        </mxCell>
        <mxCell id="87OqCBBtjAjnsFlcotj2-61" style="edgeStyle=orthogonalEdgeStyle;rounded=0;orthogonalLoop=1;jettySize=auto;html=1;exitX=1;exitY=0.5;exitDx=0;exitDy=0;entryX=0;entryY=0.5;entryDx=0;entryDy=0;" edge="1" parent="1" source="87OqCBBtjAjnsFlcotj2-53" target="87OqCBBtjAjnsFlcotj2-60">
          <mxGeometry relative="1" as="geometry" />
        </mxCell>
        <mxCell id="87OqCBBtjAjnsFlcotj2-62" value="Si" style="edgeLabel;html=1;align=center;verticalAlign=middle;resizable=0;points=[];" vertex="1" connectable="0" parent="87OqCBBtjAjnsFlcotj2-61">
          <mxGeometry x="-0.2405" y="-1" relative="1" as="geometry">
            <mxPoint x="-11" y="-1" as="offset" />
          </mxGeometry>
        </mxCell>
        <mxCell id="87OqCBBtjAjnsFlcotj2-132" style="edgeStyle=orthogonalEdgeStyle;rounded=0;orthogonalLoop=1;jettySize=auto;html=1;exitX=0;exitY=0.5;exitDx=0;exitDy=0;" edge="1" parent="1" source="87OqCBBtjAjnsFlcotj2-53" target="87OqCBBtjAjnsFlcotj2-56">
          <mxGeometry relative="1" as="geometry" />
        </mxCell>
        <mxCell id="87OqCBBtjAjnsFlcotj2-133" value="No" style="edgeLabel;html=1;align=center;verticalAlign=middle;resizable=0;points=[];" vertex="1" connectable="0" parent="87OqCBBtjAjnsFlcotj2-132">
          <mxGeometry x="-0.6923" y="2" relative="1" as="geometry">
            <mxPoint as="offset" />
          </mxGeometry>
        </mxCell>
        <mxCell id="87OqCBBtjAjnsFlcotj2-53" value="¿Hay versiones nuevas?" style="rhombus;whiteSpace=wrap;html=1;" vertex="1" parent="1">
          <mxGeometry x="430" y="300" width="85" height="75.63" as="geometry" />
        </mxCell>
        <mxCell id="87OqCBBtjAjnsFlcotj2-122" style="edgeStyle=orthogonalEdgeStyle;rounded=0;orthogonalLoop=1;jettySize=auto;html=1;exitX=0.5;exitY=1;exitDx=0;exitDy=0;entryX=1;entryY=0.5;entryDx=0;entryDy=0;" edge="1" parent="1" source="87OqCBBtjAjnsFlcotj2-60" target="87OqCBBtjAjnsFlcotj2-121">
          <mxGeometry relative="1" as="geometry" />
        </mxCell>
        <mxCell id="87OqCBBtjAjnsFlcotj2-60" value="Selecciona la nueva versión&amp;nbsp;" style="rounded=1;whiteSpace=wrap;html=1;" vertex="1" parent="1">
          <mxGeometry x="580" y="315.01" width="120" height="49.99" as="geometry" />
        </mxCell>
        <mxCell id="87OqCBBtjAjnsFlcotj2-68" value="" style="edgeStyle=orthogonalEdgeStyle;rounded=0;orthogonalLoop=1;jettySize=auto;html=1;" edge="1" parent="1" target="87OqCBBtjAjnsFlcotj2-67">
          <mxGeometry relative="1" as="geometry">
            <mxPoint x="530" y="480" as="sourcePoint" />
          </mxGeometry>
        </mxCell>
        <mxCell id="87OqCBBtjAjnsFlcotj2-72" value="" style="edgeStyle=orthogonalEdgeStyle;rounded=0;orthogonalLoop=1;jettySize=auto;html=1;" edge="1" parent="1" target="87OqCBBtjAjnsFlcotj2-71">
          <mxGeometry relative="1" as="geometry">
            <mxPoint x="300" y="450" as="sourcePoint" />
          </mxGeometry>
        </mxCell>
        <mxCell id="87OqCBBtjAjnsFlcotj2-76" value="" style="edgeStyle=orthogonalEdgeStyle;rounded=0;orthogonalLoop=1;jettySize=auto;html=1;" edge="1" parent="1" target="87OqCBBtjAjnsFlcotj2-75">
          <mxGeometry relative="1" as="geometry">
            <mxPoint x="125" y="450" as="sourcePoint" />
          </mxGeometry>
        </mxCell>
        <mxCell id="87OqCBBtjAjnsFlcotj2-81" value="" style="edgeStyle=orthogonalEdgeStyle;rounded=0;orthogonalLoop=1;jettySize=auto;html=1;" edge="1" parent="1" target="87OqCBBtjAjnsFlcotj2-80">
          <mxGeometry relative="1" as="geometry">
            <mxPoint x="300" y="530" as="sourcePoint" />
          </mxGeometry>
        </mxCell>
        <mxCell id="87OqCBBtjAjnsFlcotj2-95" value="" style="strokeWidth=2;html=1;shape=mxgraph.flowchart.start_2;whiteSpace=wrap;fillColor=#000000;" vertex="1" parent="1">
          <mxGeometry x="101.25" y="100" width="47.5" height="50" as="geometry" />
        </mxCell>
        <mxCell id="87OqCBBtjAjnsFlcotj2-106" value="" style="strokeWidth=2;html=1;shape=mxgraph.flowchart.start_2;whiteSpace=wrap;" vertex="1" parent="1">
          <mxGeometry x="95" y="390" width="60" height="60" as="geometry" />
        </mxCell>
        <mxCell id="87OqCBBtjAjnsFlcotj2-108" value="" style="strokeWidth=2;html=1;shape=mxgraph.flowchart.start_2;whiteSpace=wrap;fillColor=#000000;" vertex="1" parent="1">
          <mxGeometry x="101.25" y="395" width="47.5" height="50" as="geometry" />
        </mxCell>
        <mxCell id="87OqCBBtjAjnsFlcotj2-134" style="edgeStyle=orthogonalEdgeStyle;rounded=0;orthogonalLoop=1;jettySize=auto;html=1;exitX=0;exitY=0.5;exitDx=0;exitDy=0;entryX=1;entryY=0.5;entryDx=0;entryDy=0;" edge="1" parent="1" source="87OqCBBtjAjnsFlcotj2-56" target="87OqCBBtjAjnsFlcotj2-117">
          <mxGeometry relative="1" as="geometry" />
        </mxCell>
        <mxCell id="87OqCBBtjAjnsFlcotj2-56" value="Despliega la versión actual y características" style="rounded=1;whiteSpace=wrap;html=1;" vertex="1" parent="1">
          <mxGeometry x="230" y="310" width="130" height="60" as="geometry" />
        </mxCell>
        <mxCell id="87OqCBBtjAjnsFlcotj2-117" value="Ve la versión y sus características&amp;nbsp;" style="rounded=1;whiteSpace=wrap;html=1;" vertex="1" parent="1">
          <mxGeometry x="65" y="310" width="120" height="60" as="geometry" />
        </mxCell>
        <mxCell id="87OqCBBtjAjnsFlcotj2-121" value="Carga la versión y los cambios hechos" style="rounded=1;whiteSpace=wrap;html=1;" vertex="1" parent="1">
          <mxGeometry x="410" y="390" width="120" height="50" as="geometry" />
        </mxCell>
        <mxCell id="87OqCBBtjAjnsFlcotj2-123" value="Notifica los cambios y la versión&amp;nbsp;" style="rounded=1;whiteSpace=wrap;html=1;" vertex="1" parent="1">
          <mxGeometry x="235" y="390" width="120" height="50" as="geometry" />
        </mxCell>
        <mxCell id="87OqCBBtjAjnsFlcotj2-135" style="edgeStyle=orthogonalEdgeStyle;rounded=0;orthogonalLoop=1;jettySize=auto;html=1;exitX=0;exitY=0.5;exitDx=0;exitDy=0;entryX=1;entryY=0.5;entryDx=0;entryDy=0;entryPerimeter=0;" edge="1" parent="1" source="87OqCBBtjAjnsFlcotj2-123" target="87OqCBBtjAjnsFlcotj2-106">
          <mxGeometry relative="1" as="geometry">
            <Array as="points">
              <mxPoint x="235" y="420" />
            </Array>
          </mxGeometry>
        </mxCell>
        <mxCell id="87OqCBBtjAjnsFlcotj2-136" style="edgeStyle=orthogonalEdgeStyle;rounded=0;orthogonalLoop=1;jettySize=auto;html=1;exitX=0.5;exitY=1;exitDx=0;exitDy=0;entryX=0.5;entryY=0;entryDx=0;entryDy=0;entryPerimeter=0;" edge="1" parent="1" source="87OqCBBtjAjnsFlcotj2-117" target="87OqCBBtjAjnsFlcotj2-106">
          <mxGeometry relative="1" as="geometry" />
        </mxCell>
      </root>
    </mxGraphModel>
  </diagram>
</mxfile>
